<svg width="226" height="41" viewBox="0 0 226 41" fill="none" xmlns="http://www.w3.org/2000/svg">
<path fill-rule="evenodd" clip-rule="evenodd" d="M86.5266 26.7764C86.7035 27.1881 86.8805 27.6585 87.0574 28.129C87.5883 29.4816 87.7063 30.7754 87.5293 32.0692C87.1164 34.7745 85.3469 37.1269 82.7515 38.1854C81.8077 38.5971 80.805 38.7735 79.7433 38.7735C79.4483 38.7735 79.0944 38.7735 78.7995 38.7147C77.5608 38.5971 76.3221 38.1854 75.0834 37.4797C73.6088 36.6564 72.1342 35.4214 70.4826 33.6571C68.831 35.4214 67.4154 36.6564 65.8818 37.4797C64.6431 38.1854 63.4044 38.5383 62.1657 38.7147C62.0183 38.7147 61.8561 38.7294 61.694 38.7441L61.6938 38.7441C61.5316 38.7588 61.3694 38.7735 61.222 38.7735C60.1602 38.7735 59.1575 38.5971 58.2137 38.1854C55.6774 37.1269 53.7898 34.8333 53.3769 32.0692C53.2 30.7166 53.3769 29.4228 53.8488 28.129C54.0258 27.5997 54.2027 27.1881 54.3797 26.7764C54.6746 26.1295 54.9695 25.4826 55.2055 24.8945L55.2645 24.8357C57.8598 19.3076 60.5731 13.7207 63.4044 8.19258L63.5224 7.95734C63.8173 7.42807 64.1122 6.84 64.4071 6.25192L64.4071 6.25186C64.4866 6.12741 64.566 6.00078 64.6463 5.87281L64.6463 5.8728L64.6463 5.87279C64.9833 5.33559 65.3351 4.77478 65.7638 4.25234C67.0025 2.84091 68.6541 2.01758 70.4826 2.01758C72.2522 2.01758 73.9627 2.84091 75.1424 4.31115C75.7323 4.95805 76.1452 5.66377 76.4991 6.31067L76.4991 6.31077C76.7941 6.89884 77.089 7.48689 77.3839 8.01615L77.5018 8.25139C80.3921 13.7795 83.1054 19.3664 85.6418 24.8945H85.7008C85.9367 25.4826 86.2316 26.1295 86.5266 26.7764ZM115.547 11.2507C115.547 12.6033 114.485 13.6619 113.129 13.6619C111.772 13.6619 110.71 12.6033 110.71 11.2507C110.71 9.89805 111.772 8.83948 113.129 8.83948C114.544 8.89829 115.547 9.95686 115.547 11.2507ZM105.697 16.0731V16.6611C105.697 16.6611 104.576 15.1909 102.099 15.1909C98.0876 15.1909 94.9614 18.249 94.9614 22.4833C94.9614 26.6588 98.0876 29.7757 102.099 29.7757C104.576 29.7757 105.697 28.2466 105.697 28.2466V28.8935C105.697 29.1876 105.933 29.4228 106.228 29.4228H109.236V15.5438H106.228C105.874 15.5438 105.697 15.779 105.697 16.0731ZM102.688 26.4235C104.045 26.4235 105.166 25.7178 105.697 24.8945V19.9545C105.166 19.19 103.986 18.4254 102.688 18.4254C100.329 18.4254 98.5005 19.8957 98.5005 22.4245C98.5005 24.9533 100.329 26.4235 102.688 26.4235ZM111.359 15.5438H114.898V29.364H111.359V15.5438ZM160.671 16.6611C160.671 16.6611 161.85 15.1909 164.269 15.1909C168.28 15.1909 171.406 18.249 171.406 22.4245C171.406 26.6 168.28 29.7169 164.269 29.7169C161.792 29.7169 160.671 28.1878 160.671 28.1878V28.8347C160.671 29.1288 160.435 29.364 160.14 29.364H157.132V8.89829H160.671V16.6611ZM163.679 26.3647C162.322 26.3647 161.261 25.659 160.671 24.8357V19.8957C161.202 19.1311 162.381 18.3666 163.679 18.3666C166.038 18.3666 167.867 19.8369 167.867 22.3657C167.867 24.8945 166.038 26.3647 163.679 26.3647ZM155.303 29.4228V21.1895C155.303 18.8371 154.831 17.5433 153.652 16.5435C152.59 15.6614 151.292 15.1909 149.759 15.1909C148.402 15.1909 147.045 15.6026 145.984 16.6611V16.0731C145.984 15.779 145.748 15.5438 145.453 15.5438H142.621V29.4228H146.16V19.7781C146.868 18.9547 147.989 18.4254 149.051 18.4254C150.997 18.4254 151.764 19.3076 151.764 21.6011V29.4228H155.303ZM134.01 15.1909C131.591 15.1909 130.411 16.6611 130.411 16.6611V8.89829H126.872V29.364H129.881C130.175 29.364 130.411 29.1288 130.411 28.8347V28.1878C130.411 28.1878 131.532 29.7169 134.01 29.7169C138.021 29.7169 141.147 26.6 141.147 22.4245C141.206 18.249 138.079 15.1909 134.01 15.1909ZM130.411 24.8357C131.001 25.659 132.063 26.3647 133.42 26.3647C135.779 26.3647 137.608 24.8945 137.608 22.3657C137.608 19.8369 135.779 18.3666 133.42 18.3666C132.122 18.3666 130.942 19.1311 130.411 19.8957V24.8357ZM123.864 15.1909C124.926 15.1909 125.516 15.3673 125.516 15.3673V18.6607C125.516 18.6607 122.566 17.6609 120.738 19.7781V29.4228H117.199V15.5438H120.207C120.502 15.5438 120.738 15.779 120.738 16.0731V16.6611C121.328 15.8966 122.743 15.1909 123.864 15.1909ZM70.4236 30.0109C68.4181 27.4821 67.1205 25.1297 66.7076 23.189C66.5306 22.3657 66.4716 21.6011 66.5896 20.9542C66.6486 20.3661 66.8845 19.8369 67.1794 19.4252C67.8873 18.4254 69.067 17.7785 70.4236 17.7785C71.7803 17.7785 73.019 18.3666 73.6678 19.4252C73.9627 19.8957 74.1987 20.3661 74.2577 20.9542C74.3756 21.6011 74.3166 22.3657 74.1397 23.189C73.7268 25.1297 72.4291 27.4821 70.4236 30.0109ZM81.8077 36.0683C83.6363 35.3626 84.934 33.7159 85.1699 31.7752C85.2879 30.7754 85.1699 29.8933 84.9929 28.9523C84.9291 28.7613 84.8479 28.5703 84.7588 28.3606C84.6834 28.1829 84.6022 27.9919 84.5211 27.7761C84.3736 27.4821 84.2409 27.1734 84.1082 26.8646C83.9754 26.5559 83.8427 26.2471 83.6953 25.9531V25.8942C81.1589 20.425 78.4456 14.8381 75.6143 9.36877L75.4963 9.13353L75.4963 9.1335C75.2014 8.54542 74.9065 7.95733 74.6116 7.42805C74.3166 6.83996 73.9627 6.25186 73.5498 5.78139C72.783 4.89924 71.7213 4.42877 70.6006 4.42877C69.4799 4.42877 68.4181 4.89924 67.6513 5.78139C67.2384 6.31067 66.8845 6.83996 66.5896 7.42805C66.2947 8.01615 65.9997 8.60424 65.7048 9.13353L65.5869 9.36877C62.6966 14.8381 59.9833 20.425 57.4469 25.8942L57.3879 25.9531C57.093 26.5411 56.7981 27.1881 56.5621 27.7761C56.3852 28.1878 56.2082 28.5995 56.0903 28.9523C55.6774 30.0109 55.6184 30.8931 55.7363 31.834C55.9723 33.7159 57.27 35.3626 59.0985 36.1271C59.9243 36.4211 60.868 36.5976 61.8708 36.48C62.8146 36.3623 63.7583 36.0683 64.7021 35.539C65.9997 34.7745 67.3564 33.6571 68.89 31.9516C66.4716 28.9523 64.938 26.1883 64.4072 23.7771C64.1122 22.6597 64.0532 21.6011 64.2302 20.6602C64.4071 19.7192 64.7021 18.8959 65.2329 18.1314C66.3537 16.5435 68.3002 15.5438 70.4236 15.5438C72.5471 15.5438 74.4936 16.4847 75.6143 18.1314C76.1452 18.8959 76.4401 19.7192 76.6171 20.6602C76.735 21.6011 76.676 22.6597 76.4401 23.7771C75.8503 26.1883 74.3756 28.8935 71.9572 31.8928C73.4909 33.5983 74.7885 34.7157 76.1452 35.4802C77.1479 36.0095 78.0327 36.3035 78.9765 36.4212C79.9792 36.5388 80.923 36.4211 81.8077 36.0683Z" fill="#8C98A4"/>
</svg>
