<svg width="226" height="41" viewBox="0 0 226 41" fill="none" xmlns="http://www.w3.org/2000/svg">
<path fill-rule="evenodd" clip-rule="evenodd" d="M70.5098 7.97188C70.5098 9.19523 69.4427 10.2438 68.1978 10.2438C66.953 10.2438 65.8859 9.19523 65.8859 7.97188C65.8859 6.74854 66.953 5.69995 68.1978 5.69995C69.4427 5.69995 70.5098 6.74854 70.5098 7.97188ZM68.1978 12.108C66.8344 12.108 65.7674 13.1566 65.7674 14.4964C65.7674 15.8363 66.8344 16.8849 68.1978 16.8849C69.5613 16.8849 70.6283 15.8363 70.6283 14.4964C70.6283 13.0983 69.5613 12.108 68.1978 12.108ZM65.7081 20.9044C65.7081 19.5646 66.8344 18.4577 68.1978 18.4577C69.5613 18.4577 70.7469 19.5646 70.6876 20.9044C70.6876 22.2443 69.5613 23.3511 68.1978 23.3511C66.8344 23.3511 65.7081 22.2443 65.7081 20.9044ZM68.1978 24.924C66.8344 24.924 65.7674 25.9726 65.7674 27.3125C65.7674 28.6523 66.8344 29.7009 68.1978 29.7009C69.5613 29.7009 70.6283 28.6523 70.6283 27.3125C70.6283 26.0308 69.5613 24.924 68.1978 24.924ZM65.8859 33.7787C65.8859 32.5554 66.953 31.5068 68.1978 31.5068C69.502 31.5068 70.5098 32.5554 70.5098 33.7787C70.5098 35.0021 69.4427 36.0507 68.1978 36.0507C66.953 36.0507 65.8859 35.0021 65.8859 33.7787ZM74.6001 11.8167C73.1181 11.8167 71.8732 13.04 71.8732 14.4964C71.8732 15.9528 73.1181 17.1761 74.6001 17.1761C76.0821 17.1761 77.327 15.9528 77.327 14.4964C77.327 13.04 76.0821 11.8167 74.6001 11.8167ZM71.7546 20.9627C71.7546 19.3898 73.0588 18.1665 74.6001 18.1665C76.1414 18.1665 77.4455 19.3898 77.4455 20.9627C77.4455 22.5356 76.1414 23.7589 74.6001 23.7589C72.9995 23.7589 71.7546 22.4773 71.7546 20.9627ZM74.6001 24.6327C73.1181 24.6327 71.8732 25.8561 71.8732 27.3124C71.8732 28.7688 73.1181 29.9922 74.6001 29.9922C76.0821 29.9922 77.327 28.7688 77.327 27.3124C77.327 25.8561 76.0821 24.6327 74.6001 24.6327ZM78.0383 20.9044C78.0383 19.1568 79.5203 17.8169 81.1802 17.8169C82.84 17.8169 84.2034 19.1568 84.322 20.9044C84.322 22.6521 82.9586 23.9919 81.1802 23.9919C79.4018 23.9919 78.0383 22.5356 78.0383 20.9044ZM61.7363 12.3992C60.61 12.3992 59.6615 13.3313 59.6615 14.4382C59.6615 15.545 60.61 16.4771 61.7363 16.4771C62.8626 16.4771 63.8111 15.545 63.8111 14.4382C63.8111 13.3313 62.9219 12.3992 61.7363 12.3992ZM59.543 20.9044C59.543 19.6811 60.4914 18.749 61.7363 18.749C62.9812 18.749 63.9297 19.6811 63.9297 20.9044C63.9297 22.1278 62.9812 23.0599 61.7363 23.0599C60.4914 23.0599 59.543 22.1278 59.543 20.9044ZM61.7363 25.2153C60.61 25.2153 59.6615 26.1474 59.6615 27.2542C59.6615 28.361 60.61 29.2931 61.7363 29.2931C62.8626 29.2931 63.8111 28.361 63.8111 27.2542C63.8111 26.1474 62.9219 25.2153 61.7363 25.2153ZM53.3778 20.9627C53.3778 19.9141 54.2078 19.0985 55.2748 19.0985C56.3418 19.0985 57.1718 19.9141 57.1718 20.9627C57.1718 22.0113 56.3418 22.8268 55.2748 22.8268C54.2078 22.8268 53.3778 22.0113 53.3778 20.9627Z" fill="#8C98A4"/>
<path d="M107.915 16.943C107.678 16.943 107.5 17.176 107.5 17.3508V33.4873C107.5 33.7204 107.738 33.8951 107.915 33.8951H109.872C110.109 33.8951 110.287 33.6621 110.287 33.4873V17.3508C110.287 17.1178 110.05 16.943 109.872 16.943H107.915Z" fill="#8C98A4"/>
<path d="M108.982 10.1272C107.915 10.1272 107.086 10.9428 107.086 11.9913C107.086 13.0399 107.915 13.8555 108.982 13.8555C110.05 13.8555 110.879 13.0399 110.879 11.9913C110.879 10.9428 109.99 10.1272 108.982 10.1272Z" fill="#8C98A4"/>
<path d="M150.004 16.943C149.767 16.943 149.589 17.176 149.589 17.3508V33.4873C149.589 33.7204 149.826 33.8951 150.004 33.8951H151.96C152.198 33.8951 152.375 33.6621 152.375 33.4873V17.3508C152.375 17.1178 152.138 16.943 151.96 16.943H150.004Z" fill="#8C98A4"/>
<path d="M150.953 10.1272C149.886 10.1272 149.056 10.9428 149.056 11.9913C149.056 13.0399 149.886 13.8555 150.953 13.8555C152.02 13.8555 152.85 13.0399 152.85 11.9913C152.85 10.9428 152.02 10.1272 150.953 10.1272Z" fill="#8C98A4"/>
<path fill-rule="evenodd" clip-rule="evenodd" d="M170.968 32.1283C170.956 32.185 170.926 32.2536 170.853 32.3222C170.853 32.4387 170.73 32.5552 170.483 32.497L170.578 32.606C170.565 32.6107 170.554 32.6135 170.545 32.6135H170.359L170.792 33.1378H171.039L170.578 32.606C170.598 32.5981 170.622 32.5847 170.649 32.5701C170.709 32.5369 170.781 32.497 170.853 32.497C170.977 32.497 170.977 32.3805 170.977 32.2639C170.977 32.216 170.977 32.1681 170.968 32.1283ZM170.112 32.6135V32.4387V31.9144H170.545C170.668 31.9144 170.792 31.9144 170.853 32.0309C170.926 32.0309 170.956 32.0713 170.968 32.1283C170.977 32.0887 170.977 32.0549 170.977 32.0309V31.9144C170.977 31.9144 170.977 31.7979 170.853 31.7979C170.853 31.7979 170.73 31.6814 170.606 31.6814H170.359H169.804V33.1378H170.051V32.6135H170.112Z" fill="#8C98A4"/>
<path fill-rule="evenodd" clip-rule="evenodd" d="M169.033 32.4387C169.033 31.7397 169.685 31.0989 170.397 31.0989C171.167 31.0989 171.76 31.6814 171.76 32.4387C171.76 33.1378 171.108 33.7786 170.397 33.7786C169.685 33.7786 169.033 33.1378 169.033 32.4387ZM169.152 32.4387C169.152 33.1378 169.685 33.6621 170.397 33.6621C171.049 33.6621 171.641 33.1378 171.641 32.4387C171.641 31.7397 171.108 31.2154 170.397 31.2154C169.685 31.2154 169.152 31.7397 169.152 32.4387Z" fill="#8C98A4"/>
<path d="M124.217 19.5644C124.455 19.5644 124.632 19.3314 124.632 19.1566V17.2342C124.632 17.0012 124.395 16.8264 124.217 16.8264H120.009V10.6514C120.009 10.4184 119.771 10.2437 119.594 10.2437H117.637C117.4 10.2437 117.222 10.4767 117.222 10.6514V16.8264H115.148C114.91 16.8264 114.733 17.0595 114.733 17.2342V19.1566C114.733 19.3896 114.97 19.5644 115.148 19.5644H117.222V28.8852C117.222 31.7396 119.179 33.6038 122.024 33.6038H124.099C124.336 33.6038 124.514 33.3708 124.514 33.196V31.2736C124.514 31.0406 124.277 30.8658 124.099 30.8658H122.32C120.957 30.8658 120.009 29.9337 120.009 28.4774V19.5062H124.217V19.5644Z" fill="#8C98A4"/>
<path d="M165.832 19.5644C166.069 19.5644 166.247 19.3314 166.247 19.1566V17.2342C166.247 17.0012 166.01 16.8264 165.832 16.8264H161.623V10.6514C161.623 10.4184 161.386 10.2437 161.208 10.2437H159.252C159.015 10.2437 158.837 10.4767 158.837 10.6514V16.8264H156.762C156.525 16.8264 156.347 17.0595 156.347 17.2342V19.1566C156.347 19.3896 156.584 19.5644 156.762 19.5644H158.837V28.8852C158.837 31.7396 160.793 33.6038 163.639 33.6038H165.713C165.951 33.6038 166.128 33.3708 166.128 33.196V31.2736C166.128 31.0406 165.891 30.8658 165.713 30.8658H163.816C162.453 30.8658 161.505 29.9337 161.505 28.4774V19.5062H165.773L165.832 19.5644Z" fill="#8C98A4"/>
<path d="M95.4666 19.5645V33.3126C95.4666 33.5456 95.7038 33.7204 95.8816 33.7204H97.8378C98.075 33.7204 98.2528 33.4873 98.2528 33.3126V19.5645H102.877C103.114 19.5645 103.292 19.3314 103.292 19.1567V17.2343C103.292 17.0013 103.054 16.8265 102.877 16.8265H98.2528V13.2147C98.2528 11.7583 99.3198 10.768 100.565 10.768H102.877C103.114 10.768 103.292 10.535 103.292 10.3602V8.43781C103.292 8.20479 103.054 8.03003 102.877 8.03003H100.683C97.7786 8.03003 95.4666 10.4185 95.4666 13.1564V16.8265H93.3918C93.1547 16.8265 92.9769 17.0595 92.9769 17.2343V19.1567C92.9769 19.3897 93.214 19.5645 93.3918 19.5645H95.4666Z" fill="#8C98A4"/>
<path fill-rule="evenodd" clip-rule="evenodd" d="M137.318 16.3023C139.63 16.3023 141.824 17.2343 143.365 18.8655C144.906 20.4966 145.736 22.7685 145.736 25.2735C145.736 31.5067 141.409 34.303 137.259 34.303C133.05 34.303 128.782 31.565 128.782 25.2735V8.32136C128.782 8.14659 128.96 7.91357 129.197 7.91357H131.153C131.331 7.91357 131.568 8.08834 131.568 8.32136V18.5742C132.932 17.2343 135.125 16.3023 137.318 16.3023ZM131.509 25.3317C131.509 28.4192 133.05 31.6815 137.259 31.6815C141.468 31.6815 142.95 28.4192 143.009 25.3317C143.009 21.6034 140.697 19.0402 137.259 19.0402C133.821 19.0402 131.509 21.5452 131.509 25.3317Z" fill="#8C98A4"/>
</svg>
