<svg width="226" height="40" viewBox="0 0 226 40" fill="none" xmlns="http://www.w3.org/2000/svg">
<path d="M82.3793 13.8319H68.5575V17.9074H78.3863C77.8949 23.6502 73.1033 26.1819 68.6189 26.1819C62.8445 26.1819 57.8073 21.6124 57.8073 15.2522C57.8073 9.01544 62.5988 4.19894 68.6189 4.19894C73.2876 4.19894 75.9905 7.16294 75.9905 7.16294L78.8163 4.19894C78.8163 4.19894 75.1305 0.12344 68.4347 0.12344C59.8959 0.0616899 53.3229 7.28644 53.3229 15.1287C53.3229 22.7857 59.5273 30.2574 68.6804 30.2574C76.7277 30.2574 82.625 24.7617 82.625 16.5489C82.625 14.8199 82.3793 13.8319 82.3793 13.8319Z" fill="#8C98A4"/>
<path fill-rule="evenodd" clip-rule="evenodd" d="M83.915 20.4392C83.915 15.2522 87.9694 10.8062 93.621 10.8062C98.2897 10.8062 103.327 14.1407 103.388 20.5627C103.388 26.2437 99.0882 30.2574 93.7438 30.2574C87.8465 30.2574 83.915 25.7497 83.915 20.4392ZM99.0882 20.5627C99.0882 16.9812 96.4468 14.6964 93.6824 14.6964C90.5495 14.6964 88.1537 17.1664 88.2151 20.5009C88.2151 23.9589 90.6109 26.4289 93.6824 26.4289C96.5082 26.4289 99.0882 24.1442 99.0882 20.5627Z" fill="#8C98A4"/>
<path fill-rule="evenodd" clip-rule="evenodd" d="M105.047 20.4392C105.047 15.2522 109.101 10.8062 114.753 10.8062C119.422 10.8062 124.459 14.1407 124.52 20.5627C124.52 26.2437 120.22 30.2574 114.876 30.2574C108.978 30.2574 105.047 25.7497 105.047 20.4392ZM120.22 20.5627C120.22 16.9812 117.579 14.6964 114.814 14.6964C111.681 14.6964 109.286 17.1664 109.347 20.5009C109.347 23.9589 111.743 26.4289 114.814 26.4289C117.64 26.4289 120.22 24.1442 120.22 20.5627Z" fill="#8C98A4"/>
<path fill-rule="evenodd" clip-rule="evenodd" d="M126.179 20.5627C126.179 15.4374 130.233 10.8679 135.455 10.8679C137.728 10.8679 139.448 11.7324 140.554 13.0909V11.4237H144.608V28.8989C144.608 35.7532 140.676 39.0259 135.516 39.0259C130.786 39.0259 128.145 36.1237 126.855 33.3449L130.602 31.8012C131.155 33.0362 132.629 35.2592 135.578 35.2592C138.649 35.2592 140.676 33.2214 140.676 29.8869V27.9727C139.509 29.2694 138.096 30.3192 135.332 30.3192C130.909 30.3192 126.179 26.3672 126.179 20.5627ZM140.984 20.6244C140.984 16.9194 138.342 14.6964 135.823 14.6964C133.12 14.6964 130.479 16.8577 130.418 20.6862C130.418 24.2059 132.998 26.4907 135.762 26.4907C138.403 26.4907 140.984 24.4529 140.984 20.6244Z" fill="#8C98A4"/>
<path fill-rule="evenodd" clip-rule="evenodd" d="M153.761 20.5009C153.761 14.6964 157.877 10.8062 162.791 10.8062C166.6 10.8062 169.487 13.3997 170.777 16.3637L171.453 17.9692L158.491 23.4032C159.29 24.8852 160.518 26.3672 163.221 26.3672C165.617 26.3672 167.091 25.0704 167.951 23.7119L171.33 25.9967C169.856 27.9727 167.276 30.2574 163.221 30.2574C158.368 30.2574 153.761 26.6142 153.761 20.5009ZM166.538 16.6724C165.924 15.4992 164.696 14.5729 162.914 14.5729C160.15 14.5729 157.447 17.4752 157.938 20.3157L166.538 16.6724Z" fill="#8C98A4"/>
<path d="M147.618 29.7017H151.857V1.04968H147.618V29.7017Z" fill="#8C98A4"/>
</svg>
