<svg width="226" height="41" viewBox="0 0 226 41" fill="none" xmlns="http://www.w3.org/2000/svg">
<path fill-rule="evenodd" clip-rule="evenodd" d="M66.4885 34.8219L66.4884 34.8219C65.8061 34.8918 65.1133 34.9628 64.4039 35.0502L58.713 18.5865V35.7507C56.9346 35.9259 55.3341 36.1594 53.615 36.4513V4.98352H58.3574L64.8189 22.8484V4.98352H69.8577V34.408C68.7443 34.5907 67.631 34.7048 66.4885 34.8219ZM83.2004 16.4827L83.2005 16.4827C84.3783 16.4542 85.5288 16.4264 86.3968 16.4264V21.3304C84.2034 21.3304 81.5951 21.3304 79.6982 21.4472V28.7449C80.6219 28.6892 81.5516 28.6276 82.4854 28.5658L82.4854 28.5658L82.4855 28.5657L82.4855 28.5657L82.4856 28.5657L82.4857 28.5657C84.4882 28.433 86.5095 28.2991 88.5309 28.2195V32.9484L74.7186 33.9993V4.98352H88.5309V9.88759H79.6982V16.5431C80.6996 16.5431 81.965 16.5125 83.2004 16.4827ZM101.869 9.94597H107.026C107.026 9.94597 107.026 4.98352 107.086 4.98352H91.732V9.94597H96.8894V32.5981C98.4899 32.5397 100.209 32.5397 101.869 32.5397V9.94597ZM115.148 16.1928H121.965V21.0969H115.148V32.2478H110.227V4.98352H124.158V9.88759H115.148V16.1928ZM137.449 28.1623C135.735 28.063 134.007 27.963 132.28 27.9276V4.98352H127.3V32.5397C131.865 32.6565 136.311 32.89 140.757 33.1819V28.3362C139.662 28.2904 138.558 28.2265 137.449 28.1623ZM146.648 33.6398L146.648 33.6399C147.716 33.7035 148.801 33.7681 149.886 33.8825V4.98352H144.965V33.5322C145.52 33.5727 146.082 33.6061 146.648 33.6398ZM165.358 19.9293L171.701 4.98352H166.188L162.69 13.2154L159.43 4.98352H154.095L159.904 19.7541L153.502 34.116C154.213 34.2095 154.924 34.2842 155.636 34.3589C156.703 34.471 157.77 34.5831 158.837 34.7582L162.512 26.4096L166.069 35.5172C166.733 35.6194 167.391 35.7288 168.045 35.8379C169.261 36.0402 170.468 36.2412 171.701 36.3929L165.358 19.9293Z" fill="#8C98A4"/>
</svg>
