<svg width="226" height="41" viewBox="0 0 226 41" fill="none" xmlns="http://www.w3.org/2000/svg">
<path d="M68.9814 4.90193C68.4407 3.13035 66.5482 2.17642 64.791 2.72152C63.0337 3.26662 62.0875 5.17448 62.6282 6.94607L71.2793 33.7924C71.8876 35.4277 73.6449 36.3817 75.3345 35.9047C77.0918 35.3596 78.1732 33.5199 77.6325 31.7483C77.6325 31.6801 68.9814 4.90193 68.9814 4.90193Z" fill="#8C98A4"/>
<path d="M55.5991 9.33089C55.0584 7.5593 53.166 6.60537 51.4087 7.15047C49.6514 7.69558 48.7052 9.60344 49.2459 11.375L57.8971 38.2214C58.5053 39.8567 60.2626 40.8106 61.9523 40.3336C63.7095 39.7885 64.7909 37.9488 64.2502 36.1772C64.2502 36.1091 55.5991 9.33089 55.5991 9.33089Z" fill="#8C98A4"/>
<path d="M79.9304 27.1831C81.6877 26.638 82.6339 24.7302 82.0932 22.9586C81.5525 21.187 79.6601 20.2331 77.9028 20.7782L51.2059 29.4317C49.5838 30.0449 48.6376 31.8165 49.1107 33.52C49.6514 35.2915 51.4763 36.3817 53.2335 35.8366C53.3687 35.8366 79.9304 27.1831 79.9304 27.1831Z" fill="#8C98A4"/>
<path d="M56.7481 34.7464C58.5054 34.2013 60.7357 33.4517 63.1013 32.6341C62.5606 30.8625 61.8171 28.614 61.0061 26.2291L54.6529 28.3414L56.7481 34.7464Z" fill="#8C98A4"/>
<path d="M70.1979 30.3174C72.6311 29.4998 74.8614 28.8184 76.5511 28.2051C76.0104 26.4336 75.267 24.185 74.4559 21.8002L68.1027 23.9124L70.1979 30.3174Z" fill="#8C98A4"/>
<path d="M75.5373 13.6237C77.2946 13.0786 78.2408 11.1707 77.7001 9.39912C77.1594 7.62754 75.2669 6.67361 73.5097 7.21871L46.8804 15.9404C45.2583 16.5536 44.3121 18.3252 44.7852 20.0286C45.3259 21.8684 47.1507 22.9586 48.908 22.3453C48.9756 22.3453 75.5373 13.6237 75.5373 13.6237Z" fill="#8C98A4"/>
<path d="M52.4225 21.1869C54.1798 20.6418 56.4102 19.8923 58.7757 19.0746C57.9647 16.6217 57.2888 14.3731 56.6805 12.6697L50.3273 14.782L52.4225 21.1869Z" fill="#8C98A4"/>
<path d="M65.8047 16.8261C68.2379 16.0084 70.4682 15.327 72.1579 14.7138C71.3469 12.2608 70.671 10.0123 70.0627 8.30884L63.7095 10.4211L65.8047 16.8261Z" fill="#8C98A4"/>
<path d="M106.898 11.9883C108.047 12.5334 108.182 12.8741 107.236 14.6456C106.289 16.4854 106.087 16.5535 104.87 16.0765C103.383 15.4633 101.558 14.9863 100.342 14.9863C98.3817 14.9863 97.0976 15.6677 97.0976 16.7579C97.0976 20.3011 108.385 18.3932 108.385 26.0247C108.385 29.8404 105.14 32.3615 100.274 32.3615C97.7058 32.3615 94.5292 31.4757 92.3665 30.3855C91.2851 29.8404 91.2175 29.4997 92.1637 27.66C92.9747 26.0928 93.2451 25.8884 94.3941 26.3654C96.2865 27.183 98.5845 27.7963 100.207 27.7963C102.031 27.7963 103.18 27.0467 103.18 25.9565C103.18 22.4815 91.6906 24.1168 91.6906 16.7579C91.6906 12.8741 94.9348 10.2167 99.7334 10.2167C102.031 10.4211 104.938 11.1025 106.898 11.9883Z" fill="#8C98A4"/>
<path d="M116.022 2.9941V31.3395C116.022 31.7483 115.549 32.2253 114.941 32.2253H111.967C111.291 32.2253 110.885 31.7483 110.885 31.3395V2.9941C110.885 1.56321 111.291 1.49507 113.454 1.49507C115.887 1.42693 116.022 1.63134 116.022 2.9941Z" fill="#8C98A4"/>
<path fill-rule="evenodd" clip-rule="evenodd" d="M136.974 31.0669V18.8702C136.974 13.5555 133.392 10.4211 127.715 10.4211C125.146 10.4211 122.308 11.2388 120.28 12.6016C119.199 13.2829 119.199 13.6236 120.28 15.3271C121.429 17.0305 121.632 17.0987 122.713 16.4854C124.065 15.6678 125.754 15.1227 127.174 15.1227C130.148 15.1227 131.905 16.4854 131.905 18.734V20.1649C130.486 19.5516 128.728 19.2109 126.836 19.2109C121.767 19.2109 118.455 21.9365 118.455 26.0247C118.455 29.8405 121.429 32.4297 125.822 32.4297C128.12 32.4297 130.418 31.4758 131.972 29.7042L131.905 30.9988C131.837 31.6802 132.31 32.1571 132.986 32.1571H135.893C136.501 32.1571 136.974 31.7483 136.974 31.0669ZM126.43 28.3414C124.606 28.3414 123.389 27.3875 123.389 25.9566C123.389 24.185 125.214 22.8222 127.917 22.8222C129.201 22.8222 130.688 23.0267 131.837 23.5036V25.4115C130.688 27.2512 128.661 28.3414 126.43 28.3414Z" fill="#8C98A4"/>
<path d="M157.047 12.0565C158.129 12.6697 158.129 13.0104 156.98 14.8501C155.898 16.5536 155.696 16.6899 154.479 16.0766C153.6 15.5997 152.113 15.1908 150.964 15.1908C147.247 15.1908 144.814 17.6438 144.814 21.3914C144.814 25.2752 147.247 27.8645 150.964 27.8645C152.249 27.8645 153.871 27.3875 154.885 26.7743C155.966 26.161 156.169 26.161 157.318 27.8645C158.331 29.4317 158.331 29.7723 157.385 30.4537C155.763 31.6121 153.127 32.4979 150.829 32.4979C144.003 32.4979 139.407 28.0689 139.407 21.4595C139.407 14.8501 144.003 10.4893 150.897 10.4893C153.06 10.4212 155.493 11.1026 157.047 12.0565Z" fill="#8C98A4"/>
<path d="M179.419 29.4998C180.297 30.59 179.959 30.9988 177.797 31.7484C175.634 32.566 175.296 32.4979 174.552 31.4758L168.402 23.2311L165.631 25.8885V31.2714C165.631 31.6802 165.158 32.1572 164.549 32.1572H161.576C160.9 32.1572 160.494 31.6802 160.494 31.2714V2.99415C160.494 1.56326 160.9 1.49512 163.063 1.49512C165.563 1.49512 165.631 1.69953 165.631 2.99415V19.0747L174.012 10.9663C174.958 10.0805 175.431 10.1486 177.121 11.2388C178.945 12.3972 179.081 12.7379 178.202 13.6237L171.984 19.7561L179.419 29.4998Z" fill="#8C98A4"/>
</svg>
